#N canvas 807 83 658 657 12;
#X floatatom 39 235 5 0 0 0 - - -;
#X floatatom 180 240 5 0 0 0 - - -;
#X obj 38 174 bp~ 300 50;
#X obj 179 179 bp~ 700 50;
#X floatatom 334 235 5 0 0 0 - - -;
#X floatatom 501 231 5 0 0 0 - - -;
#X obj 395 91 hip~ 800;
#X obj 396 121 lop~ 2400;
#X obj 333 174 bp~ 800 50;
#X obj 500 170 bp~ 2400 50;
#X obj 39 205 env~ 8192;
#X obj 180 210 env~ 8192;
#X obj 334 205 env~ 8192;
#X obj 501 201 env~ 8192;
#X obj 71 274 /;
#X obj 109 91 hip~ 300;
#X obj 110 121 lop~ 700;
#X obj 508 286 /;
#X obj 71 310 * 500;
#X obj 508 322 * 1600;
#X floatatom 71 368 5 0 0 0 - - -;
#X floatatom 508 382 5 0 0 0 - - -;
#X obj 71 339 mean;
#X obj 508 352 mean;
#X text 24 106 F1 range >>;
#X text 483 108 << F2 range;
#X text 155 283 << compute ratios between low and high >>;
#X floatatom 123 368 5 0 0 0 - - -;
#X floatatom 558 381 5 0 0 0 - - -;
#X floatatom 16 339 5 0 0 0 - - -;
#N canvas 868 302 450 276 standard 0;
#X obj 41 38 inlet;
#X obj 192 41 inlet;
#X obj 41 193 outlet;
#X obj 41 83 expr pow(($f1-$f2) \, 2);
#X obj 41 123 mean;
#X obj 41 160 sqrt;
#X text 25 225 Use the SD formular to calculate the standard deviation
;
#X connect 0 0 3 0;
#X connect 1 0 3 1;
#X connect 3 0 4 0;
#X connect 4 0 5 0;
#X connect 5 0 2 0;
#X restore 16 413 pd standard;
#X floatatom 16 460 5 0 0 0 - - -;
#N canvas 908 337 450 300 standard 0;
#X obj 44 30 inlet;
#X obj 195 33 inlet;
#X obj 44 185 outlet;
#X obj 44 75 expr pow(($f1-$f2) \, 2);
#X obj 44 115 mean;
#X obj 44 152 sqrt;
#X text 35 235 Use the SD formular to calculate the standard deviation
;
#X connect 0 0 3 0;
#X connect 1 0 3 1;
#X connect 3 0 4 0;
#X connect 4 0 5 0;
#X connect 5 0 2 0;
#X restore 420 420 pd standard;
#X floatatom 420 353 5 0 0 0 - - -;
#X floatatom 420 472 5 0 0 0 - - -;
#X obj 224 33 inlet~;
#X obj 16 501 outlet;
#X obj 71 502 outlet;
#X obj 420 511 outlet;
#X obj 508 510 outlet;
#X text 132 335 << I use mean show the mean value of F1 F2>>;
#X text 187 418 << compute stanrd deviation >>;
#X text 303 567 outlet 4 >> mean value of F2;
#X text 303 544 outlet 3 >> standard value of F2;
#X text 59 545 outlet 1 >> standard value of F1;
#X text 59 568 outlet 2 >> mean value of F1;
#X connect 0 0 14 0;
#X connect 1 0 14 1;
#X connect 2 0 10 0;
#X connect 3 0 11 0;
#X connect 4 0 17 0;
#X connect 5 0 17 1;
#X connect 6 0 7 0;
#X connect 7 0 8 0;
#X connect 7 0 9 0;
#X connect 8 0 12 0;
#X connect 9 0 13 0;
#X connect 10 0 0 0;
#X connect 11 0 1 0;
#X connect 12 0 4 0;
#X connect 13 0 5 0;
#X connect 14 0 18 0;
#X connect 15 0 16 0;
#X connect 16 0 2 0;
#X connect 16 0 3 0;
#X connect 17 0 19 0;
#X connect 18 0 22 0;
#X connect 18 0 29 0;
#X connect 19 0 23 0;
#X connect 19 0 33 0;
#X connect 20 0 30 1;
#X connect 21 0 32 1;
#X connect 22 0 20 0;
#X connect 22 0 37 0;
#X connect 22 1 27 0;
#X connect 23 0 21 0;
#X connect 23 0 39 0;
#X connect 23 1 28 0;
#X connect 29 0 30 0;
#X connect 30 0 31 0;
#X connect 30 0 36 0;
#X connect 32 0 34 0;
#X connect 32 0 38 0;
#X connect 33 0 32 0;
#X connect 35 0 6 0;
#X connect 35 0 15 0;
